<svg xmlns="http://www.w3.org/2000/svg" xmlns:xlink="http://www.w3.org/1999/xlink" width="400" zoomAndPan="magnify" viewBox="0 0 300 74.999997" height="100" preserveAspectRatio="xMidYMid meet" version="1.0"><defs><g/></defs><g fill="#000000" fill-opacity="1"><g transform="translate(-5.623774, 60.42038)"><g><path d="M 17.3125 -9.3125 C 17.84375 -9.257812 18.460938 -9.222656 19.171875 -9.203125 C 19.890625 -9.179688 20.734375 -9.171875 21.703125 -9.171875 C 27.429688 -9.171875 31.675781 -10.613281 34.4375 -13.5 C 37.195312 -16.382812 38.578125 -20.367188 38.578125 -25.453125 C 38.578125 -30.773438 37.253906 -34.804688 34.609375 -37.546875 C 31.972656 -40.285156 27.796875 -41.65625 22.078125 -41.65625 C 21.296875 -41.65625 20.488281 -41.640625 19.65625 -41.609375 C 18.820312 -41.585938 18.039062 -41.53125 17.3125 -41.4375 Z M 50.390625 -25.453125 C 50.390625 -21.046875 49.703125 -17.203125 48.328125 -13.921875 C 46.960938 -10.648438 45.019531 -7.9375 42.5 -5.78125 C 39.976562 -3.632812 36.910156 -2.023438 33.296875 -0.953125 C 29.679688 0.117188 25.625 0.65625 21.125 0.65625 C 19.070312 0.65625 16.675781 0.566406 13.9375 0.390625 C 11.195312 0.222656 8.507812 -0.125 5.875 -0.65625 L 5.875 -50.171875 C 8.507812 -50.660156 11.253906 -50.988281 14.109375 -51.15625 C 16.972656 -51.320312 19.429688 -51.40625 21.484375 -51.40625 C 25.835938 -51.40625 29.785156 -50.914062 33.328125 -49.9375 C 36.878906 -48.96875 39.925781 -47.429688 42.46875 -45.328125 C 45.007812 -43.222656 46.960938 -40.53125 48.328125 -37.25 C 49.703125 -33.976562 50.390625 -30.046875 50.390625 -25.453125 Z M 50.390625 -25.453125 "/></g></g></g><g fill="#000000" fill-opacity="1"><g transform="translate(48.431768, 60.42038)"><g><path d="M 19.875 -7.625 C 20.945312 -7.625 21.972656 -7.648438 22.953125 -7.703125 C 23.929688 -7.753906 24.710938 -7.828125 25.296875 -7.921875 L 25.296875 -16.203125 C 24.859375 -16.304688 24.195312 -16.40625 23.3125 -16.5 C 22.4375 -16.601562 21.632812 -16.65625 20.90625 -16.65625 C 19.875 -16.65625 18.90625 -16.59375 18 -16.46875 C 17.101562 -16.34375 16.3125 -16.109375 15.625 -15.765625 C 14.9375 -15.421875 14.394531 -14.957031 14 -14.375 C 13.613281 -13.789062 13.421875 -13.054688 13.421875 -12.171875 C 13.421875 -10.460938 13.992188 -9.273438 15.140625 -8.609375 C 16.296875 -7.953125 17.875 -7.625 19.875 -7.625 Z M 19 -39.609375 C 22.226562 -39.609375 24.914062 -39.238281 27.0625 -38.5 C 29.21875 -37.769531 30.941406 -36.71875 32.234375 -35.34375 C 33.523438 -33.976562 34.441406 -32.316406 34.984375 -30.359375 C 35.523438 -28.410156 35.796875 -26.238281 35.796875 -23.84375 L 35.796875 -1.09375 C 34.222656 -0.757812 32.039062 -0.359375 29.25 0.109375 C 26.46875 0.578125 23.097656 0.8125 19.140625 0.8125 C 16.648438 0.8125 14.390625 0.585938 12.359375 0.140625 C 10.328125 -0.296875 8.578125 -1.015625 7.109375 -2.015625 C 5.640625 -3.015625 4.515625 -4.320312 3.734375 -5.9375 C 2.953125 -7.550781 2.5625 -9.53125 2.5625 -11.875 C 2.5625 -14.125 3.015625 -16.03125 3.921875 -17.59375 C 4.828125 -19.164062 6.035156 -20.414062 7.546875 -21.34375 C 9.066406 -22.269531 10.804688 -22.941406 12.765625 -23.359375 C 14.722656 -23.773438 16.75 -23.984375 18.84375 -23.984375 C 20.257812 -23.984375 21.519531 -23.921875 22.625 -23.796875 C 23.726562 -23.671875 24.617188 -23.515625 25.296875 -23.328125 L 25.296875 -24.34375 C 25.296875 -26.207031 24.734375 -27.703125 23.609375 -28.828125 C 22.492188 -29.953125 20.539062 -30.515625 17.75 -30.515625 C 15.894531 -30.515625 14.0625 -30.378906 12.25 -30.109375 C 10.4375 -29.835938 8.867188 -29.457031 7.546875 -28.96875 L 6.15625 -37.765625 C 6.789062 -37.960938 7.582031 -38.171875 8.53125 -38.390625 C 9.488281 -38.609375 10.53125 -38.800781 11.65625 -38.96875 C 12.78125 -39.144531 13.96875 -39.296875 15.21875 -39.421875 C 16.46875 -39.546875 17.726562 -39.609375 19 -39.609375 Z M 19 -39.609375 "/></g></g></g><g fill="#000000" fill-opacity="1"><g transform="translate(88.991786, 60.42038)"><g><path d="M 15.625 0 C 13.125 -4.882812 10.59375 -10.601562 8.03125 -17.15625 C 5.46875 -23.707031 3.035156 -30.847656 0.734375 -38.578125 L 12.328125 -38.578125 C 12.816406 -36.671875 13.390625 -34.601562 14.046875 -32.375 C 14.703125 -30.15625 15.382812 -27.90625 16.09375 -25.625 C 16.800781 -23.351562 17.507812 -21.140625 18.21875 -18.984375 C 18.9375 -16.835938 19.632812 -14.882812 20.3125 -13.125 C 20.945312 -14.882812 21.628906 -16.835938 22.359375 -18.984375 C 23.097656 -21.140625 23.820312 -23.351562 24.53125 -25.625 C 25.238281 -27.90625 25.921875 -30.15625 26.578125 -32.375 C 27.242188 -34.601562 27.820312 -36.671875 28.3125 -38.578125 L 39.609375 -38.578125 C 37.304688 -30.847656 34.867188 -23.707031 32.296875 -17.15625 C 29.734375 -10.601562 27.207031 -4.882812 24.71875 0 Z M 15.625 0 "/></g></g></g><g fill="#000000" fill-opacity="1"><g transform="translate(129.331749, 60.42038)"><g><path d="M 16.0625 0 L 5.140625 0 L 5.140625 -38.578125 L 16.0625 -38.578125 Z M 17.09375 -49.734375 C 17.09375 -47.722656 16.441406 -46.140625 15.140625 -44.984375 C 13.847656 -43.835938 12.320312 -43.265625 10.5625 -43.265625 C 8.800781 -43.265625 7.269531 -43.835938 5.96875 -44.984375 C 4.675781 -46.140625 4.03125 -47.722656 4.03125 -49.734375 C 4.03125 -51.734375 4.675781 -53.304688 5.96875 -54.453125 C 7.269531 -55.609375 8.800781 -56.1875 10.5625 -56.1875 C 12.320312 -56.1875 13.847656 -55.609375 15.140625 -54.453125 C 16.441406 -53.304688 17.09375 -51.734375 17.09375 -49.734375 Z M 17.09375 -49.734375 "/></g></g></g><g fill="#000000" fill-opacity="1"><g transform="translate(150.528559, 60.42038)"><g><path d="M 14.453125 -19.578125 C 14.453125 -16.203125 15.207031 -13.488281 16.71875 -11.4375 C 18.238281 -9.382812 20.488281 -8.359375 23.46875 -8.359375 C 24.445312 -8.359375 25.351562 -8.394531 26.1875 -8.46875 C 27.019531 -8.539062 27.703125 -8.628906 28.234375 -8.734375 L 28.234375 -28.609375 C 27.546875 -29.046875 26.648438 -29.410156 25.546875 -29.703125 C 24.453125 -29.992188 23.34375 -30.140625 22.21875 -30.140625 C 17.039062 -30.140625 14.453125 -26.617188 14.453125 -19.578125 Z M 39.171875 -1.25 C 38.191406 -0.957031 37.066406 -0.675781 35.796875 -0.40625 C 34.523438 -0.132812 33.191406 0.0976562 31.796875 0.296875 C 30.398438 0.492188 28.976562 0.648438 27.53125 0.765625 C 26.09375 0.890625 24.710938 0.953125 23.390625 0.953125 C 20.210938 0.953125 17.375 0.488281 14.875 -0.4375 C 12.382812 -1.363281 10.285156 -2.695312 8.578125 -4.4375 C 6.867188 -6.175781 5.5625 -8.28125 4.65625 -10.75 C 3.75 -13.21875 3.296875 -15.988281 3.296875 -19.0625 C 3.296875 -22.195312 3.6875 -25.019531 4.46875 -27.53125 C 5.25 -30.050781 6.375 -32.191406 7.84375 -33.953125 C 9.3125 -35.710938 11.109375 -37.054688 13.234375 -37.984375 C 15.359375 -38.921875 17.789062 -39.390625 20.53125 -39.390625 C 22.050781 -39.390625 23.410156 -39.238281 24.609375 -38.9375 C 25.804688 -38.644531 27.015625 -38.234375 28.234375 -37.703125 L 28.234375 -55.15625 L 39.171875 -56.921875 Z M 39.171875 -1.25 "/></g></g></g><g fill="#000000" fill-opacity="1"><g transform="translate(194.829157, 60.42038)"><g/></g></g><g fill="#000000" fill-opacity="1"><g transform="translate(212.432066, 60.42038)"><g><path d="M 24.5 -29.921875 C 26.550781 -33.390625 28.503906 -36.859375 30.359375 -40.328125 C 32.222656 -43.804688 33.9375 -47.304688 35.5 -50.828125 L 48.109375 -50.828125 C 45.328125 -45.347656 42.441406 -40.039062 39.453125 -34.90625 C 36.472656 -29.769531 33.320312 -24.613281 30 -19.4375 L 30 0 L 18.5625 0 L 18.5625 -19.296875 C 15.226562 -24.472656 12.054688 -29.648438 9.046875 -34.828125 C 6.046875 -40.015625 3.148438 -45.347656 0.359375 -50.828125 L 13.640625 -50.828125 C 15.203125 -47.304688 16.890625 -43.804688 18.703125 -40.328125 C 20.515625 -36.859375 22.445312 -33.390625 24.5 -29.921875 Z M 24.5 -29.921875 "/></g></g></g><g fill="#000000" fill-opacity="1"><g transform="translate(260.913355, 60.42038)"><g><path d="M 38.0625 -1.3125 C 36.207031 -0.78125 33.8125 -0.285156 30.875 0.171875 C 27.945312 0.640625 24.867188 0.875 21.640625 0.875 C 18.359375 0.875 15.628906 0.4375 13.453125 -0.4375 C 11.273438 -1.320312 9.550781 -2.554688 8.28125 -4.140625 C 7.007812 -5.734375 6.101562 -7.628906 5.5625 -9.828125 C 5.03125 -12.023438 4.765625 -14.445312 4.765625 -17.09375 L 4.765625 -38.578125 L 15.703125 -38.578125 L 15.703125 -18.40625 C 15.703125 -14.882812 16.164062 -12.34375 17.09375 -10.78125 C 18.019531 -9.21875 19.753906 -8.4375 22.296875 -8.4375 C 23.078125 -8.4375 23.90625 -8.472656 24.78125 -8.546875 C 25.664062 -8.617188 26.453125 -8.703125 27.140625 -8.796875 L 27.140625 -38.578125 L 38.0625 -38.578125 Z M 38.0625 -1.3125 "/></g></g></g></svg>